<svg id="visual" viewBox="0 0 900 600" width="900" height="620" xmlns="http://www.w3.org/2000/svg" xmlns:xlink="http://www.w3.org/1999/xlink" version="1.1"><rect x="0" y="0" width="900" height="600" fill="#ffffff"></rect><defs><linearGradient id="grad1_0" x1="33.3%" y1="0%" x2="100%" y2="100%"><stop offset="20%" stop-color="#0066ff" stop-opacity="1"></stop><stop offset="80%" stop-color="#0066ff" stop-opacity="1"></stop></linearGradient></defs><defs><linearGradient id="grad1_1" x1="33.3%" y1="0%" x2="100%" y2="100%"><stop offset="20%" stop-color="#0066ff" stop-opacity="1"></stop><stop offset="80%" stop-color="#acafff" stop-opacity="1"></stop></linearGradient></defs><defs><linearGradient id="grad1_2" x1="33.3%" y1="0%" x2="100%" y2="100%"><stop offset="20%" stop-color="#ffffff" stop-opacity="1"></stop><stop offset="80%" stop-color="#acafff" stop-opacity="1"></stop></linearGradient></defs><defs><linearGradient id="grad2_0" x1="0%" y1="0%" x2="66.7%" y2="100%"><stop offset="20%" stop-color="#0066ff" stop-opacity="1"></stop><stop offset="80%" stop-color="#0066ff" stop-opacity="1"></stop></linearGradient></defs><defs><linearGradient id="grad2_1" x1="0%" y1="0%" x2="66.7%" y2="100%"><stop offset="20%" stop-color="#acafff" stop-opacity="1"></stop><stop offset="80%" stop-color="#0066ff" stop-opacity="1"></stop></linearGradient></defs><defs><linearGradient id="grad2_2" x1="0%" y1="0%" x2="66.7%" y2="100%"><stop offset="20%" stop-color="#acafff" stop-opacity="1"></stop><stop offset="80%" stop-color="#ffffff" stop-opacity="1"></stop></linearGradient></defs><g transform="translate(900, 0)"><path d="M0 189.3C-23.3 186.2 -46.7 183 -72.4 174.9C-98.2 166.7 -126.3 153.6 -130.1 130.1C-133.9 106.6 -113.4 72.8 -119.2 49.4C-125 26 -157.1 13 -189.3 0L0 0Z" fill="#d7d6ff"></path><path d="M0 126.2C-15.6 124.1 -31.1 122 -48.3 116.6C-65.5 111.2 -84.2 102.4 -86.7 86.7C-89.3 71.1 -75.6 48.5 -79.5 32.9C-83.3 17.3 -104.8 8.7 -126.2 0L0 0Z" fill="#7789ff"></path><path d="M0 63.1C-7.8 62.1 -15.6 61 -24.1 58.3C-32.7 55.6 -42.1 51.2 -43.4 43.4C-44.6 35.5 -37.8 24.3 -39.7 16.5C-41.7 8.7 -52.4 4.3 -63.1 0L0 0Z" fill="#0066ff"></path></g><g transform="translate(0, 600)"><path d="M0 -189.3C22.2 -175.3 44.3 -161.3 61.2 -147.8C78.1 -134.3 89.8 -121.3 110.3 -110.3C130.8 -99.4 160.2 -90.5 174.9 -72.4C189.5 -54.4 189.4 -27.2 189.3 0L0 0Z" fill="#d7d6ff"></path><path d="M0 -126.2C14.8 -116.9 29.5 -107.6 40.8 -98.5C52.1 -89.5 59.9 -80.8 73.5 -73.5C87.2 -66.2 106.8 -60.3 116.6 -48.3C126.4 -36.3 126.3 -18.1 126.2 0L0 0Z" fill="#7789ff"></path><path d="M0 -63.1C7.4 -58.4 14.8 -53.8 20.4 -49.3C26 -44.8 29.9 -40.4 36.8 -36.8C43.6 -33.1 53.4 -30.2 58.3 -24.1C63.2 -18.1 63.1 -9.1 63.1 0L0 0Z" fill="#0066ff"></path></g></svg>