<svg id="visual" viewBox="0 0 900 600" width="900" height="600" xmlns="http://www.w3.org/2000/svg" xmlns:xlink="http://www.w3.org/1999/xlink" version="1.1"><rect x="0" y="0" width="900" height="600" fill="#fafafa"></rect><g transform="translate(919.3222443193663 -7.605688486030431)"><path d="M78.7 -143C95.7 -111.5 99 -79.1 143.2 -46.6C187.3 -14 272.3 18.7 307.8 72C343.3 125.3 329.2 199.2 284.8 242.1C240.3 285 165.5 297 106.9 272.1C48.4 247.2 6 185.5 -47.8 167.5C-101.6 149.5 -166.8 175.3 -235 165.3C-303.1 155.4 -374.3 109.7 -365.8 62.4C-357.3 15.1 -269.2 -33.8 -228 -95.9C-186.8 -158 -192.6 -233.4 -162.4 -258.9C-132.3 -284.5 -66.1 -260.2 -17.7 -232.8C30.8 -205.3 61.6 -174.6 78.7 -143" fill="#0066FF"></path></g></svg>